<svg width="40" height="40" viewBox="0 0 40 40" fill="none" xmlns="http://www.w3.org/2000/svg">
<path d="M19.9219 1.25C8.93672 1.25 0 9.135 0 18.8281C0 22.9228 1.62047 26.8905 4.56961 30.0353C5.15328 32.442 4.44484 34.9917 2.68703 36.7495C1.95203 37.4846 2.4718 38.75 3.51562 38.75C6.855 38.75 10.0742 37.442 12.466 35.1348C14.8327 35.9794 17.3366 36.4062 19.9219 36.4062C30.907 36.4062 40 28.5212 40 18.8281C40 9.135 30.907 1.25 19.9219 1.25Z" fill="#F8F48A"/>
<path d="M19.0055 26.3267C14.4088 26.3267 11.2821 22.92 11.2821 17.2967C11.2821 11.6733 14.4088 8.43 19.0055 8.43C23.5788 8.43 26.7055 11.6967 26.7055 17.2967C26.7055 22.92 23.5788 26.3267 19.0055 26.3267ZM19.0055 23.5033C21.5721 23.5033 23.2055 21.1933 23.2055 17.2967C23.2055 13.61 21.5721 11.3933 19.0055 11.3933C16.4155 11.3933 14.8055 13.61 14.8055 17.2967C14.8055 21.1933 16.4155 23.5033 19.0055 23.5033ZM24.5821 30.69C20.9188 30.69 18.3988 28.66 17.3021 25.9067L20.8021 25.5567C21.4555 27.2367 23.2288 27.9367 24.9555 27.9367C25.7255 27.9367 26.3555 27.82 26.8688 27.6333L27.4988 30.1767C26.8688 30.48 25.8421 30.69 24.5821 30.69Z" fill="#F45189"/>
</svg>
