<svg width="64" height="64" viewBox="0 0 64 64" fill="none" xmlns="http://www.w3.org/2000/svg">
<path d="M20 31.9968V21.603C20 17.2967 24.7905 14.603 28.6178 16.7592L37.8712 21.9593L47.1247 27.1593C50.9584 29.3093 50.9584 34.6968 47.1247 36.8468L37.8712 42.0469L28.6178 47.2469C24.7905 49.3907 20 46.7032 20 42.3969V31.9968Z" fill="white"/>
<path d="M32 2.66669C15.8 2.66669 2.66666 15.8 2.66666 32C2.66666 48.2 15.8 61.3334 32 61.3334C48.2 61.3334 61.3333 48.2 61.3333 32C61.3333 15.8 48.2 2.66669 32 2.66669ZM45.8213 35.7734L27.868 46.1387C27.1853 46.532 26.4373 46.7294 25.6893 46.7294C24.9413 46.7294 24.1933 46.532 23.5107 46.1387C22.1467 45.3507 21.332 43.9414 21.332 42.3654V21.6347C21.332 20.06 22.1467 18.6494 23.5107 17.8614C24.8747 17.0734 26.5027 17.0734 27.8667 17.8614L45.82 28.2267C47.184 29.0147 47.9987 30.424 47.9987 32C47.9987 33.576 47.1853 34.9854 45.8213 35.7734Z" fill="#F4437E"/>
</svg>
