<svg width="48" height="48" viewBox="0 0 48 48" fill="none" xmlns="http://www.w3.org/2000/svg">
<g filter="url(#filter0_d_16_166)">
<path d="M19.8015 22.1803L23.4307 38.9655C23.5819 39.7216 24.338 40.3264 25.0941 40.4776C25.8502 40.6289 26.7575 40.1752 27.2111 39.4191L29.3282 35.4875L35.2257 41.385C35.9818 42.141 37.3427 42.141 38.0988 41.385L41.728 37.7557C42.4841 36.9996 42.4841 35.6387 41.728 34.8826L35.6793 29.2875L39.4598 27.1705C40.2159 26.7168 40.6695 25.9607 40.5183 25.0534C40.3671 24.1461 39.7622 23.5413 39.0061 23.39L22.2209 19.912C20.86 19.6096 19.499 20.9706 19.8015 22.1803Z" fill="white"/>
<path d="M21.7673 13.5609C22.6746 13.5609 23.2795 12.8048 23.2795 12.0487V7.51218C23.2795 6.60487 22.5234 6 21.7673 6C20.86 6 20.2551 6.75609 20.2551 7.51218V12.0487C20.2551 12.8048 20.86 13.5609 21.7673 13.5609Z" fill="white"/>
<path d="M16.1723 13.7121L12.8455 10.5365C12.2407 9.7804 11.1822 9.7804 10.5773 10.5365C9.97241 11.1414 9.97241 12.0487 10.5773 12.6535L13.7529 15.8291C14.3577 16.434 15.4162 16.434 16.0211 15.8291C16.7772 15.3755 16.7772 14.3169 16.1723 13.7121Z" fill="white"/>
<path d="M6.04068 21.5754C6.04068 22.4827 6.79677 23.0876 7.55286 23.0876H12.0894C12.9967 23.0876 13.6016 22.3315 13.6016 21.5754C13.6016 20.8193 12.8455 20.0632 12.0894 20.0632H7.55286C6.64555 20.0632 6.04068 20.8193 6.04068 21.5754Z" fill="white"/>
<path d="M13.904 27.3217L10.7284 30.4973C10.1235 31.1021 10.1235 32.1607 10.7284 32.7655C11.3333 33.3704 12.3918 33.3704 12.9967 32.7655L16.1722 29.59C16.7771 28.9851 16.7771 27.9266 16.1722 27.3217C15.4162 26.7168 14.5088 26.7168 13.904 27.3217Z" fill="white"/>
<path d="M29.7819 15.9803L32.9574 12.6536C33.5623 12.0487 33.5623 10.9902 32.9574 10.3853C32.3526 9.78042 31.294 9.78042 30.6892 10.3853L27.5136 13.5609C26.9087 14.1657 26.9087 15.2243 27.5136 15.8291C28.1185 16.5852 29.177 16.5852 29.7819 15.9803Z" fill="white"/>
</g>
<defs>
<filter id="filter0_d_16_166" x="-2" y="0" width="52" height="52" filterUnits="userSpaceOnUse" color-interpolation-filters="sRGB">
<feFlood flood-opacity="0" result="BackgroundImageFix"/>
<feColorMatrix in="SourceAlpha" type="matrix" values="0 0 0 0 0 0 0 0 0 0 0 0 0 0 0 0 0 0 127 0" result="hardAlpha"/>
<feOffset dy="2"/>
<feGaussianBlur stdDeviation="1"/>
<feColorMatrix type="matrix" values="0 0 0 0 0 0 0 0 0 0 0 0 0 0 0 0 0 0 0.48 0"/>
<feBlend mode="normal" in2="BackgroundImageFix" result="effect1_dropShadow_16_166"/>
<feBlend mode="normal" in="SourceGraphic" in2="effect1_dropShadow_16_166" result="shape"/>
</filter>
</defs>
</svg>
